<svg xmlns="http://www.w3.org/2000/svg" xmlns:xlink="http://www.w3.org/1999/xlink" xml:lang="en" height="264.81350000000003pt" width="581.647pt" viewBox="-17.247 -166.60000000000002 581.647 264.81350000000003"><circle cx="252" cy="-54" r="18" style="stroke:black;fill:none;stroke-width:2.0;stroke-dasharray:-;" /><circle cx="406.8" cy="-54" r="18" style="stroke:black;fill:none;stroke-width:2.0;stroke-dasharray:-;" /><path d="M 0.0,-108.0 L 27,-108 L 30,-117 L 36,-99 L 42,-117 L 48,-99 L 54,-117 L 60,-99 L 63,-108 L 90,-108" style="stroke:black;fill:none;stroke-width:2.0;stroke-dasharray:-;stroke-linecap:round;stroke-linejoin:round;" /><path d="M 90.0,-108.0 L 117,-108 L 144,-108" style="stroke:black;fill:none;stroke-width:2.0;stroke-dasharray:-;stroke-linecap:round;stroke-linejoin:round;" /><path d="M 108.0,-108.0 L 108,-57.24 M 117,-57.24 L 99,-57.24 M 117,-50.76 L 99,-50.76 M 108,-50.76 L 108,-0" style="stroke:black;fill:none;stroke-width:2.0;stroke-dasharray:-;stroke-linecap:round;stroke-linejoin:round;" /><path d="M 144.0,-108.0 L 176.76,-108 M 176.76,-117 L 176.76,-99 M 183.24,-117 L 183.24,-99 M 183.24,-108 L 216,-108" style="stroke:black;fill:none;stroke-width:2.0;stroke-dasharray:-;stroke-linecap:round;stroke-linejoin:round;" /><path d="M 216.0,-108.0 L 356.4,-108 L 496.8,-108" style="stroke:black;fill:none;stroke-width:2.0;stroke-dasharray:-;stroke-linecap:round;stroke-linejoin:round;" /><path d="M 108.0,-0.0 L 257.4,-0 L 406.8,-0" style="stroke:black;fill:none;stroke-width:2.0;stroke-dasharray:-;stroke-linecap:round;stroke-linejoin:round;" /><path d="M 252.0,-108.0 L 252,-72 L 252,-72 M 252,-36 L 252,-36 L 252,-0" style="stroke:black;fill:none;stroke-width:2.0;stroke-dasharray:-;stroke-linecap:round;stroke-linejoin:round;" /><path d="M 252.0,-63.0 L 252,-54" style="stroke:black;fill:none;stroke-width:2.0;stroke-dasharray:-;stroke-linecap:round;stroke-linejoin:round;" /><path d="M 252 -47 L 249.3 -54 L 254.7 -54 Z" style="stroke:black;fill:black;stroke-linecap:butt;stroke-linejoin:miter;" /><path d="M 334.8,-108.0 L 334.8,-72 L 343.8,-69 L 325.8,-63 L 343.8,-57 L 325.8,-51 L 343.8,-45 L 325.8,-39 L 334.8,-36 L 334.8,-0" style="stroke:black;fill:none;stroke-width:2.0;stroke-dasharray:-;stroke-linecap:round;stroke-linejoin:round;" /><path d="M 406.8,-108.0 L 406.8,-72 L 406.8,-72 M 406.8,-36 L 406.8,-36 L 406.8,-0" style="stroke:black;fill:none;stroke-width:2.0;stroke-dasharray:-;stroke-linecap:round;stroke-linejoin:round;" /><path d="M 406.8,-63.0 L 406.8,-54" style="stroke:black;fill:none;stroke-width:2.0;stroke-dasharray:-;stroke-linecap:round;stroke-linejoin:round;" /><path d="M 406.8 -47 L 404.1 -54 L 409.5 -54 Z" style="stroke:black;fill:black;stroke-linecap:butt;stroke-linejoin:miter;" /><path d="M 180.0,90.0 L 329.4,90 L 478.8,90" style="stroke:black;fill:none;stroke-width:2.0;stroke-dasharray:-;stroke-linecap:round;stroke-linejoin:round;" /><path d="M 216.0,-0.0 L 216,41.76 M 225,41.76 L 207,41.76 M 225,48.24 L 207,48.24 M 216,48.24 L 216,90" style="stroke:black;fill:none;stroke-width:2.0;stroke-dasharray:-;stroke-linecap:round;stroke-linejoin:round;" /><path d="M 478.8,-108.0 L 478.8,-12.24 M 487.8,-12.24 L 469.8,-12.24 M 487.8,-5.76 L 469.8,-5.76 M 478.8,-5.76 L 478.8,90" style="stroke:black;fill:none;stroke-width:2.0;stroke-dasharray:-;stroke-linecap:round;stroke-linejoin:round;" /><path d="M 108.0,-108.0 L 108,-135 L 108,-162" style="stroke:black;fill:none;stroke-width:2.0;stroke-dasharray:-;stroke-linecap:round;stroke-linejoin:round;" /><path d="M 108.0,-162.0 L 329.4,-162 L 550.8,-162" style="stroke:black;fill:none;stroke-width:2.0;stroke-dasharray:-;stroke-linecap:round;stroke-linejoin:round;" /><path d="M 550.8000000000001,-162.0 L 550.8,-63 L 550.8,36" style="stroke:black;fill:none;stroke-width:2.0;stroke-dasharray:-;stroke-linecap:round;stroke-linejoin:round;" /><path d="M 550.8000000000001,36.0 L 550.8,59.76 M 559.8,59.76 L 541.8,59.76 M 559.8,66.24 L 541.8,66.24 M 550.8,66.24 L 550.8,90" style="stroke:black;fill:none;stroke-width:2.0;stroke-dasharray:-;stroke-linecap:round;stroke-linejoin:round;" /><path d="M 550.8000000000001,90.0 L 514.8,90 L 478.8,90" style="stroke:black;fill:none;stroke-width:2.0;stroke-dasharray:-;stroke-linecap:round;stroke-linejoin:round;" /><path d="M 252.0,-0.0 L 252,18 L 252,36" style="stroke:black;fill:none;stroke-width:2.0;stroke-dasharray:-;stroke-linecap:round;stroke-linejoin:round;" /><g><g><g><path d="M 44.707 -128.711 L 44.707 -128.711 Q 44.707 -128.128 44.487 -127.732 Q 44.267 -127.336 43.915 -127.083 Q 43.563 -126.83 43.161 -126.693 Q 42.76 -126.555 42.397 -126.489 L 42.397 -126.434 Q 42.595 -126.302 42.771 -126.033 Q 42.947 -125.763 43.205 -125.257 Q 43.464 -124.751 43.915 -123.893 Q 44.102 -123.563 44.327 -123.448 Q 44.553 -123.332 44.927 -123.332 L 44.861 -123.002 L 43.189 -123.002 Q 42.881 -123.684 42.672 -124.141 Q 42.463 -124.597 42.309 -124.905 Q 42.155 -125.213 42.039 -125.455 Q 41.924 -125.697 41.792 -125.95 Q 41.671 -126.181 41.528 -126.253 Q 41.385 -126.324 41.088 -126.324 L 40.857 -126.324 L 40.45 -124.366 Q 40.362 -123.915 40.389 -123.69 Q 40.417 -123.464 40.637 -123.398 Q 40.857 -123.332 41.33 -123.332 L 41.275 -123.002 L 38.239 -123.002 L 38.305 -123.332 Q 38.712 -123.332 38.932 -123.398 Q 39.152 -123.464 39.267 -123.684 Q 39.383 -123.904 39.471 -124.366 L 40.439 -129.085 Q 40.505 -129.393 40.472 -129.569 Q 40.439 -129.745 40.246 -129.822 Q 40.054 -129.899 39.614 -129.899 L 39.68 -130.229 L 42.265 -130.229 Q 43.42 -130.229 44.063 -129.872 Q 44.707 -129.514 44.707 -128.711 Z M 41.55 -129.767 L 41.55 -129.767 L 40.934 -126.731 L 41.275 -126.72 Q 41.935 -126.742 42.468 -126.935 Q 43.002 -127.127 43.31 -127.545 Q 43.618 -127.963 43.618 -128.667 Q 43.618 -128.964 43.491 -129.223 Q 43.365 -129.481 43.057 -129.641 Q 42.749 -129.8 42.199 -129.8 Q 41.99 -129.8 41.863 -129.795 Q 41.737 -129.789 41.55 -129.767 Z " fill="black" /><path d="M 51.316 -123.156 L 51.316 -123.156 L 51.316 -122.848 Q 51.085 -122.848 50.965 -122.798 Q 50.846 -122.748 50.804 -122.614 Q 50.761 -122.479 50.761 -122.217 L 50.761 -121.185 Q 50.492 -121.024 50.191 -120.893 Q 49.891 -120.762 49.514 -120.681 Q 49.137 -120.6 48.636 -120.6 Q 47.335 -120.6 46.634 -121.308 Q 45.933 -122.017 45.933 -123.364 Q 45.933 -124.265 46.291 -124.904 Q 46.649 -125.543 47.277 -125.878 Q 47.905 -126.213 48.713 -126.213 Q 49.167 -126.213 49.433 -126.14 Q 49.699 -126.067 49.849 -125.99 Q 49.999 -125.913 50.099 -125.913 Q 50.184 -125.913 50.242 -125.986 Q 50.299 -126.059 50.399 -126.198 L 50.677 -126.198 L 50.677 -124.281 L 50.353 -124.281 Q 50.207 -125.097 49.795 -125.451 Q 49.383 -125.805 48.69 -125.805 Q 48.105 -125.805 47.704 -125.516 Q 47.304 -125.228 47.104 -124.708 Q 46.904 -124.188 46.904 -123.48 Q 46.904 -122.271 47.396 -121.643 Q 47.889 -121.016 48.767 -121.016 Q 49.144 -121.016 49.421 -121.131 Q 49.699 -121.247 49.93 -121.439 L 49.93 -122.163 Q 49.93 -122.448 49.883 -122.594 Q 49.837 -122.741 49.687 -122.794 Q 49.537 -122.848 49.229 -122.848 L 49.229 -123.156 Z " fill="black" /></g></g></g><g><g><g><path d="M 126.837 -53.127 L 126.837 -53.127 L 127.035 -52.918 Q 126.474 -52.258 125.737 -51.834 Q 125 -51.411 123.955 -51.411 Q 122.965 -51.411 122.371 -51.779 Q 121.777 -52.148 121.519 -52.764 Q 121.26 -53.38 121.26 -54.106 Q 121.26 -55.261 121.612 -56.157 Q 121.964 -57.054 122.575 -57.664 Q 123.185 -58.275 123.955 -58.588 Q 124.725 -58.902 125.561 -58.902 Q 126.122 -58.902 126.436 -58.803 Q 126.749 -58.704 126.925 -58.599 Q 127.101 -58.495 127.233 -58.495 Q 127.365 -58.495 127.464 -58.605 Q 127.563 -58.715 127.695 -58.891 L 128.014 -58.891 L 127.497 -56.372 L 127.134 -56.372 Q 127.178 -57.472 126.727 -57.95 Q 126.276 -58.429 125.462 -58.429 Q 124.824 -58.429 124.263 -58.137 Q 123.702 -57.846 123.268 -57.312 Q 122.833 -56.779 122.586 -56.036 Q 122.338 -55.294 122.338 -54.381 Q 122.338 -53.281 122.861 -52.703 Q 123.383 -52.126 124.472 -52.126 Q 125.737 -52.126 126.837 -53.127 Z " fill="black" /><path d="M 133.545 -51.686 L 133.545 -51.686 L 133.545 -51.378 Q 133.314 -51.378 133.194 -51.328 Q 133.075 -51.277 133.033 -51.143 Q 132.99 -51.008 132.99 -50.746 L 132.99 -49.714 Q 132.721 -49.553 132.421 -49.422 Q 132.12 -49.291 131.743 -49.21 Q 131.366 -49.129 130.865 -49.129 Q 129.564 -49.129 128.863 -49.838 Q 128.162 -50.546 128.162 -51.893 Q 128.162 -52.794 128.521 -53.433 Q 128.879 -54.073 129.506 -54.408 Q 130.134 -54.742 130.942 -54.742 Q 131.397 -54.742 131.662 -54.669 Q 131.928 -54.596 132.078 -54.519 Q 132.228 -54.442 132.328 -54.442 Q 132.413 -54.442 132.471 -54.515 Q 132.528 -54.588 132.629 -54.727 L 132.906 -54.727 L 132.906 -52.81 L 132.582 -52.81 Q 132.436 -53.626 132.024 -53.98 Q 131.612 -54.334 130.919 -54.334 Q 130.334 -54.334 129.934 -54.046 Q 129.533 -53.757 129.333 -53.237 Q 129.133 -52.717 129.133 -52.009 Q 129.133 -50.8 129.626 -50.173 Q 130.118 -49.545 130.996 -49.545 Q 131.373 -49.545 131.651 -49.66 Q 131.928 -49.776 132.159 -49.968 L 132.159 -50.692 Q 132.159 -50.977 132.113 -51.123 Q 132.066 -51.27 131.916 -51.324 Q 131.766 -51.378 131.458 -51.378 L 131.458 -51.686 Z " fill="black" /><path d="M 137.834 -53.064 L 137.834 -53.064 L 137.533 -53.064 Q 137.426 -53.464 137.268 -53.753 Q 137.11 -54.042 136.848 -54.203 Q 136.586 -54.365 136.163 -54.365 Q 135.762 -54.365 135.524 -54.165 Q 135.285 -53.965 135.285 -53.603 Q 135.285 -53.279 135.489 -53.052 Q 135.693 -52.825 136.013 -52.644 Q 136.332 -52.463 136.694 -52.282 Q 137.056 -52.101 137.376 -51.878 Q 137.695 -51.655 137.899 -51.347 Q 138.103 -51.039 138.103 -50.592 Q 138.103 -50.115 137.88 -49.784 Q 137.657 -49.453 137.272 -49.283 Q 136.887 -49.114 136.401 -49.114 Q 135.963 -49.114 135.689 -49.175 Q 135.416 -49.237 135.254 -49.299 Q 135.093 -49.36 134.985 -49.36 Q 134.892 -49.36 134.827 -49.295 Q 134.761 -49.229 134.754 -49.098 L 134.415 -49.098 L 134.415 -50.939 L 134.715 -50.939 Q 134.862 -50.4 135.042 -50.092 Q 135.223 -49.784 135.508 -49.657 Q 135.793 -49.53 136.24 -49.53 Q 136.702 -49.53 136.979 -49.711 Q 137.256 -49.891 137.256 -50.377 Q 137.256 -50.708 137.06 -50.939 Q 136.863 -51.17 136.552 -51.351 Q 136.24 -51.532 135.889 -51.709 Q 135.539 -51.886 135.227 -52.101 Q 134.915 -52.317 134.719 -52.621 Q 134.523 -52.925 134.523 -53.364 Q 134.523 -53.811 134.746 -54.115 Q 134.969 -54.419 135.335 -54.573 Q 135.701 -54.727 136.124 -54.727 Q 136.509 -54.727 136.729 -54.662 Q 136.948 -54.596 137.071 -54.531 Q 137.195 -54.465 137.279 -54.465 Q 137.395 -54.465 137.453 -54.515 Q 137.51 -54.565 137.541 -54.704 L 137.834 -54.704 Z " fill="black" /></g></g></g><g><g><g><path d="M 82.819 -80.626 L 82.819 -80.626 L 79.937 -80.626 L 79.937 -77.711 L 79.145 -77.711 L 79.145 -80.626 L 76.263 -80.626 L 76.263 -81.374 L 79.145 -81.374 L 79.145 -84.289 L 79.937 -84.289 L 79.937 -81.374 L 82.819 -81.374 Z " fill="black" /></g></g></g><g><g><g><path d="M 75.045 -58.734 L 75.045 -58.734 L 75.287 -58.734 L 74.77 -56.622 Q 74.693 -56.336 74.611 -55.935 Q 74.528 -55.533 74.528 -55.159 Q 74.528 -54.73 74.704 -54.417 Q 74.88 -54.103 75.386 -54.103 Q 75.947 -54.103 76.354 -54.373 Q 76.761 -54.642 77.02 -55.06 Q 77.278 -55.478 77.405 -55.94 Q 77.531 -56.402 77.531 -56.787 Q 77.531 -57.073 77.432 -57.282 Q 77.333 -57.491 77.196 -57.656 Q 77.058 -57.821 76.959 -57.975 Q 76.86 -58.129 76.86 -58.305 Q 76.86 -58.525 76.981 -58.646 Q 77.102 -58.767 77.278 -58.767 Q 77.652 -58.767 77.883 -58.393 Q 78.114 -58.019 78.114 -57.436 Q 78.114 -56.93 77.988 -56.375 Q 77.861 -55.819 77.608 -55.291 Q 77.355 -54.763 76.981 -54.334 Q 76.607 -53.905 76.123 -53.652 Q 75.639 -53.399 75.045 -53.399 Q 74.495 -53.399 74.187 -53.619 Q 73.879 -53.839 73.753 -54.202 Q 73.626 -54.565 73.626 -54.983 Q 73.626 -55.379 73.703 -55.797 Q 73.78 -56.215 73.868 -56.556 L 74.088 -57.392 Q 74.11 -57.48 74.154 -57.656 Q 74.198 -57.832 74.198 -57.997 Q 74.198 -58.14 74.143 -58.239 Q 74.088 -58.338 73.934 -58.338 Q 73.802 -58.338 73.615 -58.322 Q 73.428 -58.305 73.428 -58.305 L 73.428 -58.613 Z " fill="black" /><path d="M 79.239 -52.736 L 79.239 -52.736 L 79.239 -52.767 Q 78.969 -52.929 78.78 -53.187 Q 78.592 -53.444 78.592 -53.853 Q 78.592 -54.284 78.8 -54.592 Q 79.008 -54.9 79.362 -55.065 Q 79.716 -55.231 80.155 -55.231 Q 80.563 -55.231 80.821 -55.142 Q 81.079 -55.054 81.079 -55.054 L 82.211 -55.085 L 82.211 -54.63 L 81.402 -54.646 L 81.402 -54.592 Q 81.502 -54.453 81.61 -54.265 Q 81.718 -54.076 81.718 -53.737 Q 81.718 -53.352 81.514 -53.071 Q 81.31 -52.79 80.967 -52.64 Q 80.625 -52.49 80.193 -52.49 Q 79.801 -52.49 79.454 -52.628 Q 79.4 -52.528 79.327 -52.343 Q 79.254 -52.159 79.254 -52.028 Q 79.254 -51.866 79.443 -51.789 Q 79.631 -51.712 80.193 -51.712 Q 80.609 -51.712 80.963 -51.693 Q 81.318 -51.673 81.579 -51.585 Q 81.841 -51.496 81.984 -51.3 Q 82.126 -51.104 82.126 -50.742 Q 82.126 -50.326 81.914 -50.037 Q 81.703 -49.748 81.356 -49.571 Q 81.01 -49.394 80.605 -49.313 Q 80.201 -49.233 79.808 -49.233 Q 79.246 -49.233 78.938 -49.371 Q 78.63 -49.51 78.511 -49.725 Q 78.392 -49.941 78.392 -50.164 Q 78.392 -50.38 78.542 -50.592 Q 78.692 -50.803 79.023 -51.111 L 79.023 -51.15 Q 78.83 -51.25 78.7 -51.419 Q 78.569 -51.589 78.569 -51.75 Q 78.569 -51.981 78.773 -52.239 Q 78.977 -52.497 79.239 -52.736 Z M 79.277 -51.073 L 79.277 -51.073 Q 79.146 -50.85 79.1 -50.719 Q 79.054 -50.588 79.054 -50.457 Q 79.054 -50.103 79.342 -49.922 Q 79.631 -49.741 80.24 -49.741 Q 80.74 -49.741 81.048 -49.864 Q 81.356 -49.987 81.502 -50.16 Q 81.649 -50.334 81.649 -50.495 Q 81.649 -50.703 81.514 -50.819 Q 81.379 -50.934 81.171 -50.984 Q 80.963 -51.034 80.732 -51.05 Q 80.501 -51.065 80.301 -51.065 Q 80.247 -51.065 80.216 -51.065 Q 79.724 -51.065 79.543 -51.069 Q 79.362 -51.073 79.277 -51.073 Z M 80.109 -54.892 L 80.109 -54.892 Q 79.778 -54.892 79.573 -54.669 Q 79.369 -54.445 79.369 -53.899 Q 79.369 -53.36 79.585 -53.083 Q 79.801 -52.805 80.193 -52.805 Q 80.401 -52.805 80.571 -52.89 Q 80.74 -52.975 80.844 -53.198 Q 80.948 -53.421 80.948 -53.829 Q 80.948 -54.353 80.721 -54.623 Q 80.494 -54.892 80.109 -54.892 Z " fill="black" /><path d="M 82.888 -52.59 L 82.888 -52.59 L 83.135 -52.59 Q 83.235 -52.143 83.373 -51.897 Q 83.512 -51.65 83.731 -51.554 Q 83.951 -51.458 84.267 -51.458 Q 84.629 -51.458 84.825 -51.577 Q 85.021 -51.697 85.021 -51.997 Q 85.021 -52.197 84.925 -52.332 Q 84.829 -52.467 84.617 -52.59 Q 84.405 -52.713 84.051 -52.875 Q 83.689 -53.052 83.431 -53.206 Q 83.173 -53.36 83.038 -53.568 Q 82.904 -53.776 82.904 -54.091 Q 82.904 -54.646 83.277 -54.938 Q 83.651 -55.231 84.213 -55.231 Q 84.552 -55.231 84.786 -55.146 Q 85.021 -55.061 85.16 -55 L 85.175 -55 L 85.298 -55.192 L 85.514 -55.192 L 85.529 -53.914 L 85.26 -53.914 Q 85.114 -54.507 84.852 -54.711 Q 84.59 -54.915 84.251 -54.915 Q 83.897 -54.915 83.716 -54.761 Q 83.535 -54.607 83.535 -54.361 Q 83.535 -54.161 83.658 -54.03 Q 83.782 -53.899 84.009 -53.787 Q 84.236 -53.675 84.552 -53.521 Q 84.906 -53.352 85.175 -53.171 Q 85.445 -52.99 85.599 -52.763 Q 85.753 -52.536 85.753 -52.197 Q 85.753 -51.789 85.537 -51.543 Q 85.322 -51.296 84.983 -51.192 Q 84.644 -51.088 84.274 -51.088 Q 83.897 -51.088 83.689 -51.165 Q 83.481 -51.242 83.304 -51.312 L 83.273 -51.312 L 83.081 -51.111 L 82.904 -51.111 Z " fill="black" /></g></g></g><g><g><g><path d="M 82.819 -26.626 L 82.819 -26.626 L 76.263 -26.626 L 76.263 -27.374 L 82.819 -27.374 Z " fill="black" /></g></g></g><g><g><g><path d="M 176.718 -124.597 L 176.718 -124.597 L 176.916 -124.388 Q 176.355 -123.728 175.618 -123.305 Q 174.881 -122.881 173.836 -122.881 Q 172.846 -122.881 172.252 -123.25 Q 171.658 -123.618 171.4 -124.234 Q 171.141 -124.85 171.141 -125.576 Q 171.141 -126.731 171.493 -127.628 Q 171.845 -128.524 172.456 -129.135 Q 173.066 -129.745 173.836 -130.059 Q 174.606 -130.372 175.442 -130.372 Q 176.003 -130.372 176.317 -130.273 Q 176.63 -130.174 176.806 -130.07 Q 176.982 -129.965 177.114 -129.965 Q 177.246 -129.965 177.345 -130.075 Q 177.444 -130.185 177.576 -130.361 L 177.895 -130.361 L 177.378 -127.842 L 177.015 -127.842 Q 177.059 -128.942 176.608 -129.421 Q 176.157 -129.899 175.343 -129.899 Q 174.705 -129.899 174.144 -129.608 Q 173.583 -129.316 173.149 -128.783 Q 172.714 -128.249 172.467 -127.507 Q 172.219 -126.764 172.219 -125.851 Q 172.219 -124.751 172.742 -124.174 Q 173.264 -123.596 174.353 -123.596 Q 175.618 -123.596 176.718 -124.597 Z " fill="black" /><path d="M 183.426 -123.156 L 183.426 -123.156 L 183.426 -122.848 Q 183.195 -122.848 183.076 -122.798 Q 182.956 -122.748 182.914 -122.614 Q 182.872 -122.479 182.872 -122.217 L 182.872 -121.185 Q 182.602 -121.024 182.302 -120.893 Q 182.001 -120.762 181.624 -120.681 Q 181.247 -120.6 180.746 -120.6 Q 179.445 -120.6 178.744 -121.308 Q 178.044 -122.017 178.044 -123.364 Q 178.044 -124.265 178.402 -124.904 Q 178.76 -125.543 179.387 -125.878 Q 180.015 -126.213 180.823 -126.213 Q 181.278 -126.213 181.543 -126.14 Q 181.809 -126.067 181.959 -125.99 Q 182.109 -125.913 182.209 -125.913 Q 182.294 -125.913 182.352 -125.986 Q 182.41 -126.059 182.51 -126.198 L 182.787 -126.198 L 182.787 -124.281 L 182.463 -124.281 Q 182.317 -125.097 181.905 -125.451 Q 181.493 -125.805 180.8 -125.805 Q 180.215 -125.805 179.815 -125.516 Q 179.414 -125.228 179.214 -124.708 Q 179.014 -124.188 179.014 -123.48 Q 179.014 -122.271 179.507 -121.643 Q 179.999 -121.016 180.877 -121.016 Q 181.255 -121.016 181.532 -121.131 Q 181.809 -121.247 182.04 -121.439 L 182.04 -122.163 Q 182.04 -122.448 181.994 -122.594 Q 181.948 -122.741 181.797 -122.794 Q 181.647 -122.848 181.339 -122.848 L 181.339 -123.156 Z " fill="black" /><path d="M 184.204 -126.106 L 184.204 -126.106 L 186.537 -126.106 Q 187.153 -126.106 187.715 -125.971 Q 188.277 -125.836 188.72 -125.528 Q 189.162 -125.22 189.42 -124.704 Q 189.678 -124.188 189.678 -123.418 Q 189.678 -122.694 189.444 -122.175 Q 189.209 -121.655 188.785 -121.328 Q 188.362 -121 187.8 -120.846 Q 187.237 -120.692 186.583 -120.692 L 184.204 -120.692 L 184.204 -120.985 Q 184.566 -120.985 184.735 -121.039 Q 184.904 -121.093 184.954 -121.258 Q 185.004 -121.424 185.004 -121.763 L 185.004 -125.105 Q 185.004 -125.42 184.931 -125.57 Q 184.858 -125.721 184.685 -125.767 Q 184.512 -125.813 184.204 -125.813 Z M 185.828 -125.721 L 185.828 -125.721 L 185.828 -121.062 Q 185.952 -121.054 186.071 -121.05 Q 186.19 -121.047 186.306 -121.047 Q 187.068 -121.047 187.603 -121.247 Q 188.138 -121.447 188.419 -121.948 Q 188.7 -122.448 188.7 -123.349 Q 188.7 -124.504 188.111 -125.116 Q 187.522 -125.728 186.244 -125.728 Q 186.136 -125.728 186.036 -125.728 Q 185.936 -125.728 185.828 -125.721 Z " fill="black" /></g></g></g><g><g><g><path d="M 279.001 -58.635 L 279.001 -58.635 L 278.935 -58.074 L 277.978 -58.184 L 277.978 -58.151 Q 278.165 -57.942 278.269 -57.629 Q 278.374 -57.315 278.374 -57.029 Q 278.374 -56.534 278.176 -56.199 Q 277.978 -55.863 277.659 -55.66 Q 277.34 -55.456 276.955 -55.352 Q 276.57 -55.247 276.207 -55.214 Q 275.767 -55.17 275.585 -55.027 Q 275.404 -54.884 275.404 -54.73 Q 275.404 -54.532 275.624 -54.428 Q 275.844 -54.323 276.19 -54.257 Q 276.537 -54.191 276.933 -54.109 Q 277.329 -54.026 277.675 -53.883 Q 278.022 -53.74 278.242 -53.482 Q 278.462 -53.223 278.462 -52.794 Q 278.462 -52.321 278.154 -51.92 Q 277.846 -51.518 277.241 -51.271 Q 276.636 -51.023 275.756 -51.023 Q 274.964 -51.023 274.491 -51.216 Q 274.018 -51.408 273.809 -51.711 Q 273.6 -52.013 273.6 -52.343 Q 273.6 -52.871 274.007 -53.196 Q 274.414 -53.52 274.931 -53.685 L 274.931 -53.729 Q 274.788 -53.817 274.661 -53.977 Q 274.535 -54.136 274.535 -54.389 Q 274.535 -54.664 274.678 -54.829 Q 274.821 -54.994 275.046 -55.099 Q 275.272 -55.203 275.492 -55.28 L 275.492 -55.346 Q 275.063 -55.533 274.744 -55.874 Q 274.425 -56.215 274.425 -56.842 Q 274.425 -57.414 274.7 -57.849 Q 274.975 -58.283 275.453 -58.525 Q 275.932 -58.767 276.526 -58.767 Q 276.922 -58.767 277.125 -58.729 Q 277.329 -58.69 277.527 -58.635 Z M 277.67 -52.387 L 277.67 -52.387 Q 277.67 -52.717 277.395 -52.921 Q 277.12 -53.124 276.713 -53.245 Q 276.306 -53.366 275.893 -53.438 Q 275.481 -53.509 275.195 -53.564 Q 274.92 -53.388 274.689 -53.163 Q 274.458 -52.937 274.458 -52.508 Q 274.458 -52.068 274.799 -51.738 Q 275.14 -51.408 275.976 -51.408 Q 276.768 -51.408 277.219 -51.7 Q 277.67 -51.991 277.67 -52.387 Z M 277.395 -57.15 L 277.395 -57.15 Q 277.395 -57.7 277.186 -58.069 Q 276.977 -58.437 276.493 -58.437 Q 276.02 -58.437 275.712 -58.041 Q 275.404 -57.645 275.404 -56.842 Q 275.404 -56.27 275.602 -55.913 Q 275.8 -55.555 276.273 -55.555 Q 276.823 -55.555 277.109 -56.017 Q 277.395 -56.479 277.395 -57.15 Z " fill="black" /><path d="M 280.88 -54.168 L 280.88 -54.168 L 280.88 -52.035 Q 280.88 -51.804 280.926 -51.681 Q 280.972 -51.558 281.103 -51.516 Q 281.234 -51.473 281.488 -51.473 L 281.488 -51.188 L 279.548 -51.188 L 279.548 -51.473 Q 279.794 -51.473 279.917 -51.516 Q 280.04 -51.558 280.079 -51.685 Q 280.117 -51.812 280.117 -52.051 L 280.117 -54.384 Q 280.117 -54.599 280.037 -54.673 Q 279.956 -54.746 279.779 -54.746 Q 279.694 -54.746 279.629 -54.738 Q 279.563 -54.73 279.563 -54.73 L 279.563 -55.023 L 280.572 -55.208 L 280.857 -55.208 L 280.857 -54.576 L 280.911 -54.576 Q 281.234 -54.869 281.557 -55.05 Q 281.881 -55.231 282.32 -55.231 Q 282.682 -55.231 282.909 -55.046 Q 283.136 -54.861 283.259 -54.592 L 283.298 -54.592 Q 283.998 -55.231 284.645 -55.231 Q 285.169 -55.231 285.473 -54.907 Q 285.777 -54.584 285.777 -53.883 L 285.777 -52.189 Q 285.777 -51.928 285.808 -51.77 Q 285.839 -51.612 285.962 -51.543 Q 286.085 -51.473 286.362 -51.473 L 286.362 -51.188 L 284.429 -51.188 L 284.429 -51.473 Q 284.714 -51.473 284.841 -51.546 Q 284.968 -51.62 284.999 -51.777 Q 285.03 -51.935 285.03 -52.189 L 285.03 -53.791 Q 285.03 -54.276 284.834 -54.469 Q 284.637 -54.661 284.329 -54.661 Q 284.068 -54.661 283.806 -54.503 Q 283.544 -54.345 283.344 -54.191 L 283.344 -52.189 Q 283.344 -51.904 283.378 -51.747 Q 283.413 -51.589 283.548 -51.531 Q 283.683 -51.473 283.967 -51.473 L 283.967 -51.188 L 281.958 -51.188 L 281.958 -51.473 Q 282.25 -51.473 282.385 -51.531 Q 282.52 -51.589 282.558 -51.747 Q 282.597 -51.904 282.597 -52.189 L 282.597 -53.814 Q 282.597 -54.299 282.424 -54.48 Q 282.25 -54.661 281.95 -54.661 Q 281.634 -54.661 281.346 -54.492 Q 281.057 -54.322 280.88 -54.168 Z " fill="black" /><path d="M 288.901 -58.734 L 288.901 -58.734 L 289.143 -58.734 L 288.626 -56.622 Q 288.549 -56.336 288.466 -55.935 Q 288.384 -55.533 288.384 -55.159 Q 288.384 -54.73 288.56 -54.417 Q 288.736 -54.103 289.242 -54.103 Q 289.803 -54.103 290.21 -54.373 Q 290.617 -54.642 290.875 -55.06 Q 291.134 -55.478 291.26 -55.94 Q 291.387 -56.402 291.387 -56.787 Q 291.387 -57.073 291.288 -57.282 Q 291.189 -57.491 291.051 -57.656 Q 290.914 -57.821 290.815 -57.975 Q 290.716 -58.129 290.716 -58.305 Q 290.716 -58.525 290.837 -58.646 Q 290.958 -58.767 291.134 -58.767 Q 291.508 -58.767 291.739 -58.393 Q 291.97 -58.019 291.97 -57.436 Q 291.97 -56.93 291.843 -56.375 Q 291.717 -55.819 291.464 -55.291 Q 291.211 -54.763 290.837 -54.334 Q 290.463 -53.905 289.979 -53.652 Q 289.495 -53.399 288.901 -53.399 Q 288.351 -53.399 288.043 -53.619 Q 287.735 -53.839 287.608 -54.202 Q 287.482 -54.565 287.482 -54.983 Q 287.482 -55.379 287.559 -55.797 Q 287.636 -56.215 287.724 -56.556 L 287.944 -57.392 Q 287.966 -57.48 288.01 -57.656 Q 288.054 -57.832 288.054 -57.997 Q 288.054 -58.14 287.999 -58.239 Q 287.944 -58.338 287.79 -58.338 Q 287.658 -58.338 287.471 -58.322 Q 287.284 -58.305 287.284 -58.305 L 287.284 -58.613 Z " fill="black" /><path d="M 293.094 -52.736 L 293.094 -52.736 L 293.094 -52.767 Q 292.825 -52.929 292.636 -53.187 Q 292.447 -53.444 292.447 -53.853 Q 292.447 -54.284 292.655 -54.592 Q 292.863 -54.9 293.217 -55.065 Q 293.572 -55.231 294.01 -55.231 Q 294.419 -55.231 294.677 -55.142 Q 294.934 -55.054 294.934 -55.054 L 296.066 -55.085 L 296.066 -54.63 L 295.258 -54.646 L 295.258 -54.592 Q 295.358 -54.453 295.466 -54.265 Q 295.574 -54.076 295.574 -53.737 Q 295.574 -53.352 295.37 -53.071 Q 295.165 -52.79 294.823 -52.64 Q 294.48 -52.49 294.049 -52.49 Q 293.656 -52.49 293.31 -52.628 Q 293.256 -52.528 293.183 -52.343 Q 293.11 -52.159 293.11 -52.028 Q 293.11 -51.866 293.298 -51.789 Q 293.487 -51.712 294.049 -51.712 Q 294.465 -51.712 294.819 -51.693 Q 295.173 -51.673 295.435 -51.585 Q 295.697 -51.496 295.839 -51.3 Q 295.982 -51.104 295.982 -50.742 Q 295.982 -50.326 295.77 -50.037 Q 295.558 -49.748 295.212 -49.571 Q 294.865 -49.394 294.461 -49.313 Q 294.057 -49.233 293.664 -49.233 Q 293.102 -49.233 292.794 -49.371 Q 292.486 -49.51 292.367 -49.725 Q 292.247 -49.941 292.247 -50.164 Q 292.247 -50.38 292.397 -50.592 Q 292.547 -50.803 292.879 -51.111 L 292.879 -51.15 Q 292.686 -51.25 292.555 -51.419 Q 292.424 -51.589 292.424 -51.75 Q 292.424 -51.981 292.628 -52.239 Q 292.832 -52.497 293.094 -52.736 Z M 293.133 -51.073 L 293.133 -51.073 Q 293.002 -50.85 292.956 -50.719 Q 292.909 -50.588 292.909 -50.457 Q 292.909 -50.103 293.198 -49.922 Q 293.487 -49.741 294.095 -49.741 Q 294.596 -49.741 294.904 -49.864 Q 295.212 -49.987 295.358 -50.16 Q 295.504 -50.334 295.504 -50.495 Q 295.504 -50.703 295.37 -50.819 Q 295.235 -50.934 295.027 -50.984 Q 294.819 -51.034 294.588 -51.05 Q 294.357 -51.065 294.157 -51.065 Q 294.103 -51.065 294.072 -51.065 Q 293.579 -51.065 293.398 -51.069 Q 293.217 -51.073 293.133 -51.073 Z M 293.964 -54.892 L 293.964 -54.892 Q 293.633 -54.892 293.429 -54.669 Q 293.225 -54.445 293.225 -53.899 Q 293.225 -53.36 293.441 -53.083 Q 293.656 -52.805 294.049 -52.805 Q 294.257 -52.805 294.426 -52.89 Q 294.596 -52.975 294.7 -53.198 Q 294.804 -53.421 294.804 -53.829 Q 294.804 -54.353 294.576 -54.623 Q 294.349 -54.892 293.964 -54.892 Z " fill="black" /><path d="M 296.744 -52.59 L 296.744 -52.59 L 296.99 -52.59 Q 297.09 -52.143 297.229 -51.897 Q 297.368 -51.65 297.587 -51.554 Q 297.807 -51.458 298.122 -51.458 Q 298.484 -51.458 298.681 -51.577 Q 298.877 -51.697 298.877 -51.997 Q 298.877 -52.197 298.781 -52.332 Q 298.684 -52.467 298.473 -52.59 Q 298.261 -52.713 297.907 -52.875 Q 297.545 -53.052 297.287 -53.206 Q 297.029 -53.36 296.894 -53.568 Q 296.759 -53.776 296.759 -54.091 Q 296.759 -54.646 297.133 -54.938 Q 297.506 -55.231 298.068 -55.231 Q 298.407 -55.231 298.642 -55.146 Q 298.877 -55.061 299.015 -55 L 299.031 -55 L 299.154 -55.192 L 299.37 -55.192 L 299.385 -53.914 L 299.116 -53.914 Q 298.969 -54.507 298.707 -54.711 Q 298.446 -54.915 298.107 -54.915 Q 297.753 -54.915 297.572 -54.761 Q 297.391 -54.607 297.391 -54.361 Q 297.391 -54.161 297.514 -54.03 Q 297.637 -53.899 297.864 -53.787 Q 298.091 -53.675 298.407 -53.521 Q 298.761 -53.352 299.031 -53.171 Q 299.3 -52.99 299.454 -52.763 Q 299.608 -52.536 299.608 -52.197 Q 299.608 -51.789 299.393 -51.543 Q 299.177 -51.296 298.838 -51.192 Q 298.5 -51.088 298.13 -51.088 Q 297.753 -51.088 297.545 -51.165 Q 297.337 -51.242 297.16 -51.312 L 297.129 -51.312 L 296.936 -51.111 L 296.759 -51.111 Z " fill="black" /></g></g></g><g><g><g><path d="M 352.801 -57.74 L 352.801 -57.74 L 352.735 -57.179 L 351.778 -57.289 L 351.778 -57.256 Q 351.965 -57.047 352.07 -56.733 Q 352.174 -56.42 352.174 -56.134 Q 352.174 -55.639 351.976 -55.303 Q 351.778 -54.968 351.459 -54.764 Q 351.14 -54.561 350.755 -54.456 Q 350.37 -54.352 350.007 -54.319 Q 349.567 -54.275 349.386 -54.132 Q 349.204 -53.989 349.204 -53.835 Q 349.204 -53.637 349.424 -53.532 Q 349.644 -53.428 349.99 -53.362 Q 350.337 -53.296 350.733 -53.214 Q 351.129 -53.131 351.476 -52.988 Q 351.822 -52.845 352.042 -52.587 Q 352.262 -52.328 352.262 -51.899 Q 352.262 -51.426 351.954 -51.025 Q 351.646 -50.623 351.041 -50.376 Q 350.436 -50.128 349.556 -50.128 Q 348.764 -50.128 348.291 -50.321 Q 347.818 -50.513 347.609 -50.816 Q 347.4 -51.118 347.4 -51.448 Q 347.4 -51.976 347.807 -52.3 Q 348.214 -52.625 348.731 -52.79 L 348.731 -52.834 Q 348.588 -52.922 348.462 -53.081 Q 348.335 -53.241 348.335 -53.494 Q 348.335 -53.769 348.478 -53.934 Q 348.621 -54.099 348.847 -54.203 Q 349.072 -54.308 349.292 -54.385 L 349.292 -54.451 Q 348.863 -54.638 348.544 -54.979 Q 348.225 -55.32 348.225 -55.947 Q 348.225 -56.519 348.5 -56.953 Q 348.775 -57.388 349.254 -57.63 Q 349.732 -57.872 350.326 -57.872 Q 350.722 -57.872 350.925 -57.834 Q 351.129 -57.795 351.327 -57.74 Z M 351.47 -51.492 L 351.47 -51.492 Q 351.47 -51.822 351.195 -52.026 Q 350.92 -52.229 350.513 -52.35 Q 350.106 -52.471 349.694 -52.543 Q 349.281 -52.614 348.995 -52.669 Q 348.72 -52.493 348.489 -52.267 Q 348.258 -52.042 348.258 -51.613 Q 348.258 -51.173 348.599 -50.843 Q 348.94 -50.513 349.776 -50.513 Q 350.568 -50.513 351.019 -50.805 Q 351.47 -51.096 351.47 -51.492 Z M 351.195 -56.255 L 351.195 -56.255 Q 351.195 -56.805 350.986 -57.174 Q 350.777 -57.542 350.293 -57.542 Q 349.82 -57.542 349.512 -57.146 Q 349.204 -56.75 349.204 -55.947 Q 349.204 -55.375 349.402 -55.017 Q 349.6 -54.66 350.073 -54.66 Q 350.623 -54.66 350.909 -55.122 Q 351.195 -55.584 351.195 -56.255 Z " fill="black" /><path d="M 357.506 -50.393 L 357.506 -50.393 L 356.466 -50.255 L 356.189 -50.255 L 356.189 -50.794 L 356.135 -50.794 Q 355.881 -50.578 355.561 -50.401 Q 355.242 -50.224 354.842 -50.224 Q 354.387 -50.224 354.068 -50.47 Q 353.748 -50.716 353.579 -51.148 Q 353.409 -51.579 353.409 -52.126 Q 353.409 -52.811 353.675 -53.308 Q 353.941 -53.804 354.383 -54.07 Q 354.826 -54.335 355.35 -54.335 Q 355.804 -54.335 356.174 -54.128 L 356.174 -55.121 Q 356.174 -55.398 356.116 -55.487 Q 356.058 -55.575 355.812 -55.575 Q 355.758 -55.575 355.669 -55.564 Q 355.581 -55.552 355.581 -55.552 L 355.581 -55.845 L 356.605 -56.045 L 356.921 -56.045 L 356.921 -51.163 Q 356.921 -50.863 357.005 -50.774 Q 357.09 -50.686 357.298 -50.686 L 357.506 -50.686 Z M 356.174 -51.148 L 356.174 -51.148 L 356.174 -53.396 Q 356.089 -53.612 355.893 -53.781 Q 355.696 -53.95 355.334 -53.95 Q 354.818 -53.95 354.487 -53.6 Q 354.156 -53.25 354.156 -52.441 Q 354.156 -51.617 354.445 -51.236 Q 354.734 -50.855 355.257 -50.855 Q 355.504 -50.855 355.708 -50.924 Q 355.912 -50.994 356.174 -51.148 Z " fill="black" /><path d="M 358.322 -51.694 L 358.322 -51.694 L 358.568 -51.694 Q 358.668 -51.248 358.807 -51.001 Q 358.946 -50.755 359.165 -50.659 Q 359.385 -50.562 359.7 -50.562 Q 360.062 -50.562 360.258 -50.682 Q 360.455 -50.801 360.455 -51.102 Q 360.455 -51.302 360.359 -51.436 Q 360.262 -51.571 360.051 -51.694 Q 359.839 -51.818 359.485 -51.979 Q 359.123 -52.156 358.865 -52.31 Q 358.607 -52.464 358.472 -52.672 Q 358.337 -52.88 358.337 -53.196 Q 358.337 -53.75 358.711 -54.043 Q 359.084 -54.335 359.646 -54.335 Q 359.985 -54.335 360.22 -54.251 Q 360.455 -54.166 360.593 -54.105 L 360.609 -54.105 L 360.732 -54.297 L 360.948 -54.297 L 360.963 -53.019 L 360.694 -53.019 Q 360.547 -53.612 360.285 -53.816 Q 360.024 -54.02 359.685 -54.02 Q 359.331 -54.02 359.15 -53.866 Q 358.969 -53.712 358.969 -53.465 Q 358.969 -53.265 359.092 -53.134 Q 359.215 -53.003 359.442 -52.892 Q 359.669 -52.78 359.985 -52.626 Q 360.339 -52.457 360.609 -52.276 Q 360.878 -52.095 361.032 -51.868 Q 361.186 -51.64 361.186 -51.302 Q 361.186 -50.894 360.971 -50.647 Q 360.755 -50.401 360.416 -50.297 Q 360.078 -50.193 359.708 -50.193 Q 359.331 -50.193 359.123 -50.27 Q 358.915 -50.347 358.738 -50.416 L 358.707 -50.416 L 358.514 -50.216 L 358.337 -50.216 Z " fill="black" /></g></g></g><g><g><g><path d="M 433.801 -57.74 L 433.801 -57.74 L 433.735 -57.179 L 432.778 -57.289 L 432.778 -57.256 Q 432.965 -57.047 433.07 -56.733 Q 433.174 -56.42 433.174 -56.134 Q 433.174 -55.639 432.976 -55.303 Q 432.778 -54.968 432.459 -54.764 Q 432.14 -54.561 431.755 -54.456 Q 431.37 -54.352 431.007 -54.319 Q 430.567 -54.275 430.386 -54.132 Q 430.204 -53.989 430.204 -53.835 Q 430.204 -53.637 430.424 -53.532 Q 430.644 -53.428 430.99 -53.362 Q 431.337 -53.296 431.733 -53.214 Q 432.129 -53.131 432.476 -52.988 Q 432.822 -52.845 433.042 -52.587 Q 433.262 -52.328 433.262 -51.899 Q 433.262 -51.426 432.954 -51.025 Q 432.646 -50.623 432.041 -50.376 Q 431.436 -50.128 430.556 -50.128 Q 429.764 -50.128 429.291 -50.321 Q 428.818 -50.513 428.609 -50.816 Q 428.4 -51.118 428.4 -51.448 Q 428.4 -51.976 428.807 -52.3 Q 429.214 -52.625 429.731 -52.79 L 429.731 -52.834 Q 429.588 -52.922 429.462 -53.081 Q 429.335 -53.241 429.335 -53.494 Q 429.335 -53.769 429.478 -53.934 Q 429.621 -54.099 429.847 -54.203 Q 430.072 -54.308 430.292 -54.385 L 430.292 -54.451 Q 429.863 -54.638 429.544 -54.979 Q 429.225 -55.32 429.225 -55.947 Q 429.225 -56.519 429.5 -56.953 Q 429.775 -57.388 430.254 -57.63 Q 430.732 -57.872 431.326 -57.872 Q 431.722 -57.872 431.925 -57.834 Q 432.129 -57.795 432.327 -57.74 Z M 432.47 -51.492 L 432.47 -51.492 Q 432.47 -51.822 432.195 -52.026 Q 431.92 -52.229 431.513 -52.35 Q 431.106 -52.471 430.694 -52.543 Q 430.281 -52.614 429.995 -52.669 Q 429.72 -52.493 429.489 -52.267 Q 429.258 -52.042 429.258 -51.613 Q 429.258 -51.173 429.599 -50.843 Q 429.94 -50.513 430.776 -50.513 Q 431.568 -50.513 432.019 -50.805 Q 432.47 -51.096 432.47 -51.492 Z M 432.195 -56.255 L 432.195 -56.255 Q 432.195 -56.805 431.986 -57.174 Q 431.777 -57.542 431.293 -57.542 Q 430.82 -57.542 430.512 -57.146 Q 430.204 -56.75 430.204 -55.947 Q 430.204 -55.375 430.402 -55.017 Q 430.6 -54.66 431.073 -54.66 Q 431.623 -54.66 431.909 -55.122 Q 432.195 -55.584 432.195 -56.255 Z " fill="black" /><path d="M 435.68 -53.273 L 435.68 -53.273 L 435.68 -51.14 Q 435.68 -50.909 435.726 -50.786 Q 435.772 -50.663 435.903 -50.62 Q 436.034 -50.578 436.288 -50.578 L 436.288 -50.293 L 434.348 -50.293 L 434.348 -50.578 Q 434.594 -50.578 434.717 -50.62 Q 434.841 -50.663 434.879 -50.79 Q 434.918 -50.917 434.918 -51.155 L 434.918 -53.489 Q 434.918 -53.704 434.837 -53.777 Q 434.756 -53.85 434.579 -53.85 Q 434.494 -53.85 434.429 -53.843 Q 434.363 -53.835 434.363 -53.835 L 434.363 -54.128 L 435.372 -54.312 L 435.657 -54.312 L 435.657 -53.681 L 435.711 -53.681 Q 436.034 -53.974 436.357 -54.155 Q 436.681 -54.335 437.12 -54.335 Q 437.482 -54.335 437.709 -54.151 Q 437.936 -53.966 438.059 -53.696 L 438.098 -53.696 Q 438.798 -54.335 439.445 -54.335 Q 439.969 -54.335 440.273 -54.012 Q 440.577 -53.689 440.577 -52.988 L 440.577 -51.294 Q 440.577 -51.032 440.608 -50.874 Q 440.639 -50.716 440.762 -50.647 Q 440.885 -50.578 441.162 -50.578 L 441.162 -50.293 L 439.23 -50.293 L 439.23 -50.578 Q 439.514 -50.578 439.641 -50.651 Q 439.769 -50.724 439.799 -50.882 Q 439.83 -51.04 439.83 -51.294 L 439.83 -52.896 Q 439.83 -53.381 439.634 -53.573 Q 439.437 -53.766 439.129 -53.766 Q 438.868 -53.766 438.606 -53.608 Q 438.344 -53.45 438.144 -53.296 L 438.144 -51.294 Q 438.144 -51.009 438.178 -50.851 Q 438.213 -50.693 438.348 -50.636 Q 438.483 -50.578 438.768 -50.578 L 438.768 -50.293 L 436.758 -50.293 L 436.758 -50.578 Q 437.05 -50.578 437.185 -50.636 Q 437.32 -50.693 437.358 -50.851 Q 437.397 -51.009 437.397 -51.294 L 437.397 -52.919 Q 437.397 -53.404 437.224 -53.585 Q 437.05 -53.766 436.75 -53.766 Q 436.434 -53.766 436.146 -53.596 Q 435.857 -53.427 435.68 -53.273 Z " fill="black" /><path d="M 443.11 -56.045 L 443.11 -56.045 L 443.11 -53.658 L 443.149 -53.658 Q 443.372 -53.92 443.676 -54.128 Q 443.98 -54.335 444.412 -54.335 Q 444.812 -54.335 445.139 -54.093 Q 445.467 -53.85 445.663 -53.423 Q 445.859 -52.996 445.859 -52.441 Q 445.859 -51.702 445.59 -51.202 Q 445.32 -50.701 444.854 -50.451 Q 444.389 -50.201 443.796 -50.201 Q 443.449 -50.201 443.157 -50.258 Q 442.864 -50.316 442.66 -50.393 Q 442.456 -50.47 442.363 -50.509 L 442.363 -55.129 Q 442.363 -55.413 442.302 -55.494 Q 442.24 -55.575 441.978 -55.575 Q 441.894 -55.575 441.821 -55.564 Q 441.747 -55.552 441.747 -55.552 L 441.747 -55.845 L 442.795 -56.045 Z M 443.11 -53.258 L 443.11 -53.258 L 443.11 -50.947 Q 443.203 -50.778 443.403 -50.678 Q 443.603 -50.578 443.934 -50.578 Q 444.342 -50.578 444.589 -50.797 Q 444.835 -51.017 444.947 -51.383 Q 445.058 -51.748 445.058 -52.179 Q 445.058 -52.572 444.97 -52.93 Q 444.881 -53.288 444.658 -53.512 Q 444.435 -53.735 444.042 -53.735 Q 443.834 -53.735 443.645 -53.654 Q 443.457 -53.573 443.318 -53.462 Q 443.18 -53.35 443.11 -53.258 Z " fill="black" /><path d="M 448.521 -57.839 L 448.521 -57.839 L 448.763 -57.839 L 448.246 -55.727 Q 448.169 -55.441 448.087 -55.04 Q 448.004 -54.638 448.004 -54.264 Q 448.004 -53.835 448.18 -53.522 Q 448.356 -53.208 448.862 -53.208 Q 449.423 -53.208 449.83 -53.477 Q 450.237 -53.747 450.496 -54.165 Q 450.754 -54.583 450.881 -55.045 Q 451.007 -55.507 451.007 -55.892 Q 451.007 -56.178 450.908 -56.387 Q 450.809 -56.596 450.672 -56.761 Q 450.534 -56.926 450.435 -57.08 Q 450.336 -57.234 450.336 -57.41 Q 450.336 -57.63 450.457 -57.751 Q 450.578 -57.872 450.754 -57.872 Q 451.128 -57.872 451.359 -57.498 Q 451.59 -57.124 451.59 -56.541 Q 451.59 -56.035 451.464 -55.48 Q 451.337 -54.924 451.084 -54.396 Q 450.831 -53.868 450.457 -53.439 Q 450.083 -53.01 449.599 -52.757 Q 449.115 -52.504 448.521 -52.504 Q 447.971 -52.504 447.663 -52.724 Q 447.355 -52.944 447.229 -53.307 Q 447.102 -53.67 447.102 -54.088 Q 447.102 -54.484 447.179 -54.902 Q 447.256 -55.32 447.344 -55.661 L 447.564 -56.497 Q 447.586 -56.585 447.63 -56.761 Q 447.674 -56.937 447.674 -57.102 Q 447.674 -57.245 447.619 -57.344 Q 447.564 -57.443 447.41 -57.443 Q 447.278 -57.443 447.091 -57.427 Q 446.904 -57.41 446.904 -57.41 L 446.904 -57.718 Z " fill="black" /><path d="M 453.816 -56.045 L 453.816 -56.045 L 453.816 -53.658 L 453.854 -53.658 Q 454.077 -53.92 454.381 -54.128 Q 454.686 -54.335 455.117 -54.335 Q 455.517 -54.335 455.844 -54.093 Q 456.172 -53.85 456.368 -53.423 Q 456.564 -52.996 456.564 -52.441 Q 456.564 -51.702 456.295 -51.202 Q 456.025 -50.701 455.56 -50.451 Q 455.094 -50.201 454.501 -50.201 Q 454.154 -50.201 453.862 -50.258 Q 453.569 -50.316 453.365 -50.393 Q 453.161 -50.47 453.069 -50.509 L 453.069 -55.129 Q 453.069 -55.413 453.007 -55.494 Q 452.945 -55.575 452.684 -55.575 Q 452.599 -55.575 452.526 -55.564 Q 452.453 -55.552 452.453 -55.552 L 452.453 -55.845 L 453.5 -56.045 Z M 453.816 -53.258 L 453.816 -53.258 L 453.816 -50.947 Q 453.908 -50.778 454.108 -50.678 Q 454.308 -50.578 454.639 -50.578 Q 455.048 -50.578 455.294 -50.797 Q 455.54 -51.017 455.652 -51.383 Q 455.764 -51.748 455.764 -52.179 Q 455.764 -52.572 455.675 -52.93 Q 455.587 -53.288 455.363 -53.512 Q 455.14 -53.735 454.747 -53.735 Q 454.539 -53.735 454.351 -53.654 Q 454.162 -53.573 454.023 -53.462 Q 453.885 -53.35 453.816 -53.258 Z " fill="black" /><path d="M 457.488 -51.694 L 457.488 -51.694 L 457.735 -51.694 Q 457.835 -51.248 457.974 -51.001 Q 458.112 -50.755 458.332 -50.659 Q 458.551 -50.562 458.867 -50.562 Q 459.229 -50.562 459.425 -50.682 Q 459.621 -50.801 459.621 -51.102 Q 459.621 -51.302 459.525 -51.436 Q 459.429 -51.571 459.217 -51.694 Q 459.005 -51.818 458.651 -51.979 Q 458.289 -52.156 458.031 -52.31 Q 457.773 -52.464 457.639 -52.672 Q 457.504 -52.88 457.504 -53.196 Q 457.504 -53.75 457.877 -54.043 Q 458.251 -54.335 458.813 -54.335 Q 459.152 -54.335 459.386 -54.251 Q 459.621 -54.166 459.76 -54.105 L 459.775 -54.105 L 459.899 -54.297 L 460.114 -54.297 L 460.13 -53.019 L 459.86 -53.019 Q 459.714 -53.612 459.452 -53.816 Q 459.19 -54.02 458.851 -54.02 Q 458.497 -54.02 458.316 -53.866 Q 458.135 -53.712 458.135 -53.465 Q 458.135 -53.265 458.258 -53.134 Q 458.382 -53.003 458.609 -52.892 Q 458.836 -52.78 459.152 -52.626 Q 459.506 -52.457 459.775 -52.276 Q 460.045 -52.095 460.199 -51.868 Q 460.353 -51.64 460.353 -51.302 Q 460.353 -50.894 460.137 -50.647 Q 459.922 -50.401 459.583 -50.297 Q 459.244 -50.193 458.874 -50.193 Q 458.497 -50.193 458.289 -50.27 Q 458.081 -50.347 457.904 -50.416 L 457.873 -50.416 L 457.681 -50.216 L 457.504 -50.216 Z " fill="black" /></g></g></g><g><g><g><path d="M 234.837 45.873 L 234.837 45.873 L 235.035 46.082 Q 234.474 46.742 233.737 47.166 Q 233 47.589 231.955 47.589 Q 230.965 47.589 230.371 47.221 Q 229.777 46.852 229.518 46.236 Q 229.26 45.62 229.26 44.894 Q 229.26 43.739 229.612 42.843 Q 229.964 41.946 230.575 41.336 Q 231.185 40.725 231.955 40.412 Q 232.725 40.098 233.561 40.098 Q 234.122 40.098 234.435 40.197 Q 234.749 40.296 234.925 40.401 Q 235.101 40.505 235.233 40.505 Q 235.365 40.505 235.464 40.395 Q 235.563 40.285 235.695 40.109 L 236.014 40.109 L 235.497 42.628 L 235.134 42.628 Q 235.178 41.528 234.727 41.05 Q 234.276 40.571 233.462 40.571 Q 232.824 40.571 232.263 40.863 Q 231.702 41.154 231.267 41.688 Q 230.833 42.221 230.585 42.964 Q 230.338 43.706 230.338 44.619 Q 230.338 45.719 230.861 46.297 Q 231.383 46.874 232.472 46.874 Q 233.737 46.874 234.837 45.873 Z " fill="black" /><path d="M 239.604 45.936 L 239.604 45.936 L 239.304 45.936 Q 239.196 45.536 239.038 45.247 Q 238.881 44.958 238.619 44.797 Q 238.357 44.635 237.934 44.635 Q 237.533 44.635 237.294 44.835 Q 237.056 45.035 237.056 45.397 Q 237.056 45.721 237.26 45.948 Q 237.464 46.175 237.783 46.356 Q 238.103 46.537 238.465 46.718 Q 238.827 46.899 239.146 47.122 Q 239.466 47.345 239.67 47.653 Q 239.874 47.961 239.874 48.408 Q 239.874 48.885 239.651 49.216 Q 239.427 49.547 239.042 49.717 Q 238.657 49.886 238.172 49.886 Q 237.733 49.886 237.46 49.825 Q 237.187 49.763 237.025 49.701 Q 236.863 49.64 236.755 49.64 Q 236.663 49.64 236.598 49.705 Q 236.532 49.771 236.524 49.902 L 236.186 49.902 L 236.186 48.061 L 236.486 48.061 Q 236.632 48.6 236.813 48.908 Q 236.994 49.216 237.279 49.343 Q 237.564 49.47 238.011 49.47 Q 238.472 49.47 238.75 49.289 Q 239.027 49.109 239.027 48.623 Q 239.027 48.292 238.831 48.061 Q 238.634 47.83 238.322 47.649 Q 238.011 47.468 237.66 47.291 Q 237.31 47.114 236.998 46.899 Q 236.686 46.683 236.49 46.379 Q 236.293 46.075 236.293 45.636 Q 236.293 45.189 236.517 44.885 Q 236.74 44.581 237.106 44.427 Q 237.471 44.273 237.895 44.273 Q 238.28 44.273 238.499 44.338 Q 238.719 44.404 238.842 44.469 Q 238.965 44.535 239.05 44.535 Q 239.166 44.535 239.223 44.485 Q 239.281 44.435 239.312 44.296 L 239.604 44.296 Z " fill="black" /><path d="M 243.916 46.899 L 243.916 46.899 L 243.916 46.945 Q 244.278 46.999 244.609 47.157 Q 244.941 47.314 245.156 47.599 Q 245.372 47.884 245.372 48.323 Q 245.372 49.032 244.833 49.405 Q 244.294 49.778 243.385 49.778 L 240.729 49.778 L 240.729 49.486 Q 241.075 49.486 241.241 49.428 Q 241.406 49.37 241.456 49.193 Q 241.506 49.016 241.506 48.67 L 241.506 45.42 Q 241.506 45.081 241.452 44.92 Q 241.399 44.758 241.233 44.708 Q 241.067 44.658 240.729 44.658 L 240.729 44.365 L 242.969 44.365 Q 244.094 44.365 244.59 44.716 Q 245.087 45.066 245.087 45.705 Q 245.087 46.229 244.763 46.494 Q 244.44 46.76 243.916 46.899 Z M 242.315 47.184 L 242.315 47.184 L 242.315 49.417 Q 242.477 49.424 242.634 49.424 Q 242.792 49.424 242.946 49.424 Q 243.193 49.424 243.454 49.397 Q 243.716 49.37 243.94 49.266 Q 244.163 49.162 244.298 48.939 Q 244.432 48.716 244.432 48.331 Q 244.432 47.884 244.221 47.638 Q 244.009 47.391 243.666 47.287 Q 243.324 47.184 242.931 47.184 Z M 242.315 46.783 L 242.315 46.783 L 242.931 46.783 Q 243.655 46.783 243.936 46.529 Q 244.217 46.275 244.217 45.759 Q 244.217 45.228 243.882 44.981 Q 243.547 44.735 242.815 44.735 Q 242.692 44.735 242.569 44.739 Q 242.446 44.743 242.315 44.75 Z " fill="black" /></g></g></g><g><g><g><path d="M 194.419 22.874 L 194.419 22.874 L 187.863 22.874 L 187.863 22.126 L 194.419 22.126 Z " fill="black" /></g></g></g><g><g><g><path d="M 186.083 41.193 L 186.083 41.193 L 186.325 41.193 L 185.808 43.305 Q 185.731 43.591 185.649 43.993 Q 185.566 44.394 185.566 44.768 Q 185.566 45.197 185.742 45.511 Q 185.918 45.824 186.424 45.824 Q 186.985 45.824 187.392 45.555 Q 187.799 45.285 188.058 44.867 Q 188.316 44.449 188.443 43.987 Q 188.569 43.525 188.569 43.14 Q 188.569 42.854 188.47 42.645 Q 188.371 42.436 188.234 42.271 Q 188.096 42.106 187.997 41.952 Q 187.898 41.798 187.898 41.622 Q 187.898 41.402 188.019 41.281 Q 188.14 41.16 188.316 41.16 Q 188.69 41.16 188.921 41.534 Q 189.152 41.908 189.152 42.491 Q 189.152 42.997 189.026 43.553 Q 188.899 44.108 188.646 44.636 Q 188.393 45.164 188.019 45.593 Q 187.645 46.022 187.161 46.275 Q 186.677 46.528 186.083 46.528 Q 185.533 46.528 185.225 46.308 Q 184.917 46.088 184.791 45.725 Q 184.664 45.362 184.664 44.944 Q 184.664 44.548 184.741 44.13 Q 184.818 43.712 184.906 43.371 L 185.126 42.535 Q 185.148 42.447 185.192 42.271 Q 185.236 42.095 185.236 41.93 Q 185.236 41.787 185.181 41.688 Q 185.126 41.589 184.972 41.589 Q 184.84 41.589 184.653 41.606 Q 184.466 41.622 184.466 41.622 L 184.466 41.314 Z " fill="black" /><path d="M 191.377 42.988 L 191.377 42.988 L 191.377 45.375 L 191.416 45.375 Q 191.639 45.113 191.943 44.905 Q 192.248 44.697 192.679 44.697 Q 193.079 44.697 193.406 44.94 Q 193.734 45.182 193.93 45.609 Q 194.126 46.037 194.126 46.591 Q 194.126 47.33 193.857 47.831 Q 193.587 48.331 193.122 48.582 Q 192.656 48.832 192.063 48.832 Q 191.716 48.832 191.424 48.774 Q 191.131 48.716 190.927 48.639 Q 190.723 48.562 190.631 48.524 L 190.631 43.904 Q 190.631 43.619 190.569 43.538 Q 190.507 43.457 190.246 43.457 Q 190.161 43.457 190.088 43.469 Q 190.015 43.48 190.015 43.48 L 190.015 43.188 L 191.062 42.988 Z M 191.377 45.775 L 191.377 45.775 L 191.377 48.085 Q 191.47 48.254 191.67 48.354 Q 191.87 48.455 192.201 48.455 Q 192.609 48.455 192.856 48.235 Q 193.102 48.016 193.214 47.65 Q 193.326 47.284 193.326 46.853 Q 193.326 46.46 193.237 46.102 Q 193.148 45.744 192.925 45.521 Q 192.702 45.298 192.309 45.298 Q 192.101 45.298 191.913 45.378 Q 191.724 45.459 191.585 45.571 Q 191.447 45.683 191.377 45.775 Z " fill="black" /><path d="M 195.05 47.338 L 195.05 47.338 L 195.297 47.338 Q 195.397 47.785 195.535 48.031 Q 195.674 48.277 195.894 48.374 Q 196.113 48.47 196.429 48.47 Q 196.791 48.47 196.987 48.351 Q 197.183 48.231 197.183 47.931 Q 197.183 47.731 197.087 47.596 Q 196.991 47.461 196.779 47.338 Q 196.567 47.215 196.213 47.053 Q 195.851 46.876 195.593 46.722 Q 195.335 46.568 195.201 46.36 Q 195.066 46.152 195.066 45.837 Q 195.066 45.282 195.439 44.99 Q 195.813 44.697 196.375 44.697 Q 196.714 44.697 196.948 44.782 Q 197.183 44.866 197.322 44.928 L 197.337 44.928 L 197.46 44.735 L 197.676 44.735 L 197.691 46.014 L 197.422 46.014 Q 197.276 45.421 197.014 45.217 Q 196.752 45.013 196.413 45.013 Q 196.059 45.013 195.878 45.167 Q 195.697 45.321 195.697 45.567 Q 195.697 45.767 195.82 45.898 Q 195.944 46.029 196.171 46.141 Q 196.398 46.252 196.714 46.406 Q 197.068 46.576 197.337 46.757 Q 197.607 46.938 197.761 47.165 Q 197.915 47.392 197.915 47.731 Q 197.915 48.139 197.699 48.385 Q 197.484 48.632 197.145 48.736 Q 196.806 48.84 196.436 48.84 Q 196.059 48.84 195.851 48.763 Q 195.643 48.686 195.466 48.616 L 195.435 48.616 L 195.243 48.816 L 195.066 48.816 Z " fill="black" /></g></g></g><g><g><g><path d="M 194.419 67.874 L 194.419 67.874 L 191.537 67.874 L 191.537 70.789 L 190.745 70.789 L 190.745 67.874 L 187.863 67.874 L 187.863 67.126 L 190.745 67.126 L 190.745 64.211 L 191.537 64.211 L 191.537 67.126 L 194.419 67.126 Z " fill="black" /></g></g></g><g><g><g><path d="M 497.637 -8.065 L 497.637 -8.065 L 497.835 -7.856 Q 497.274 -7.196 496.537 -6.773 Q 495.8 -6.349 494.755 -6.349 Q 493.765 -6.349 493.171 -6.718 Q 492.577 -7.086 492.319 -7.702 Q 492.06 -8.318 492.06 -9.044 Q 492.06 -10.199 492.412 -11.096 Q 492.764 -11.992 493.375 -12.602 Q 493.985 -13.213 494.755 -13.527 Q 495.525 -13.84 496.361 -13.84 Q 496.922 -13.84 497.236 -13.741 Q 497.549 -13.642 497.725 -13.538 Q 497.901 -13.433 498.033 -13.433 Q 498.165 -13.433 498.264 -13.543 Q 498.363 -13.653 498.495 -13.829 L 498.814 -13.829 L 498.297 -11.31 L 497.934 -11.31 Q 497.978 -12.41 497.527 -12.889 Q 497.076 -13.367 496.262 -13.367 Q 495.624 -13.367 495.063 -13.075 Q 494.502 -12.784 494.068 -12.251 Q 493.633 -11.717 493.386 -10.975 Q 493.138 -10.232 493.138 -9.319 Q 493.138 -8.219 493.661 -7.642 Q 494.183 -7.064 495.272 -7.064 Q 496.537 -7.064 497.637 -8.065 Z " fill="black" /><path d="M 498.893 -9.573 L 498.893 -9.573 L 501.226 -9.573 Q 501.842 -9.573 502.404 -9.438 Q 502.967 -9.304 503.409 -8.996 Q 503.852 -8.688 504.11 -8.172 Q 504.368 -7.656 504.368 -6.886 Q 504.368 -6.162 504.133 -5.642 Q 503.898 -5.123 503.475 -4.795 Q 503.051 -4.468 502.489 -4.314 Q 501.927 -4.16 501.273 -4.16 L 498.893 -4.16 L 498.893 -4.453 Q 499.255 -4.453 499.425 -4.506 Q 499.594 -4.56 499.644 -4.726 Q 499.694 -4.891 499.694 -5.23 L 499.694 -8.572 Q 499.694 -8.888 499.621 -9.038 Q 499.548 -9.188 499.374 -9.234 Q 499.201 -9.28 498.893 -9.28 Z M 500.518 -9.188 L 500.518 -9.188 L 500.518 -4.53 Q 500.641 -4.522 500.76 -4.518 Q 500.88 -4.514 500.995 -4.514 Q 501.758 -4.514 502.293 -4.714 Q 502.828 -4.915 503.109 -5.415 Q 503.39 -5.916 503.39 -6.816 Q 503.39 -7.971 502.801 -8.584 Q 502.212 -9.196 500.934 -9.196 Q 500.826 -9.196 500.726 -9.196 Q 500.626 -9.196 500.518 -9.188 Z " fill="black" /><path d="M 508.472 -7.04 L 508.472 -7.04 L 508.472 -6.994 Q 508.834 -6.94 509.165 -6.782 Q 509.496 -6.624 509.712 -6.339 Q 509.927 -6.054 509.927 -5.615 Q 509.927 -4.907 509.388 -4.533 Q 508.849 -4.16 507.941 -4.16 L 505.284 -4.16 L 505.284 -4.453 Q 505.631 -4.453 505.796 -4.51 Q 505.962 -4.568 506.012 -4.745 Q 506.062 -4.922 506.062 -5.269 L 506.062 -8.518 Q 506.062 -8.857 506.008 -9.019 Q 505.954 -9.18 505.789 -9.23 Q 505.623 -9.28 505.284 -9.28 L 505.284 -9.573 L 507.525 -9.573 Q 508.649 -9.573 509.146 -9.223 Q 509.642 -8.872 509.642 -8.233 Q 509.642 -7.71 509.319 -7.444 Q 508.996 -7.178 508.472 -7.04 Z M 506.87 -6.755 L 506.87 -6.755 L 506.87 -4.522 Q 507.032 -4.514 507.19 -4.514 Q 507.348 -4.514 507.502 -4.514 Q 507.748 -4.514 508.01 -4.541 Q 508.272 -4.568 508.495 -4.672 Q 508.718 -4.776 508.853 -4.999 Q 508.988 -5.223 508.988 -5.608 Q 508.988 -6.054 508.776 -6.301 Q 508.564 -6.547 508.222 -6.651 Q 507.879 -6.755 507.486 -6.755 Z M 506.87 -7.155 L 506.87 -7.155 L 507.486 -7.155 Q 508.21 -7.155 508.491 -7.409 Q 508.772 -7.663 508.772 -8.179 Q 508.772 -8.711 508.437 -8.957 Q 508.102 -9.204 507.371 -9.204 Q 507.248 -9.204 507.125 -9.2 Q 507.001 -9.196 506.87 -9.188 Z " fill="black" /></g></g></g><g><g><g><path d="M 526.462 63.889 L 526.462 63.889 L 526.66 64.098 Q 526.099 64.758 525.362 65.181 Q 524.625 65.605 523.58 65.605 Q 522.59 65.605 521.996 65.236 Q 521.402 64.868 521.143 64.252 Q 520.885 63.636 520.885 62.91 Q 520.885 61.755 521.237 60.858 Q 521.589 59.962 522.199 59.351 Q 522.81 58.741 523.58 58.427 Q 524.35 58.114 525.186 58.114 Q 525.747 58.114 526.06 58.213 Q 526.374 58.312 526.55 58.416 Q 526.726 58.521 526.858 58.521 Q 526.99 58.521 527.089 58.411 Q 527.188 58.301 527.32 58.125 L 527.639 58.125 L 527.122 60.644 L 526.759 60.644 Q 526.803 59.544 526.352 59.065 Q 525.901 58.587 525.087 58.587 Q 524.449 58.587 523.888 58.878 Q 523.327 59.17 522.892 59.703 Q 522.458 60.237 522.21 60.979 Q 521.963 61.722 521.963 62.635 Q 521.963 63.735 522.485 64.312 Q 523.008 64.89 524.097 64.89 Q 525.362 64.89 526.462 63.889 Z " fill="black" /><path d="M 533.17 65.33 L 533.17 65.33 L 533.17 65.638 Q 532.939 65.638 532.819 65.688 Q 532.7 65.738 532.658 65.873 Q 532.615 66.007 532.615 66.269 L 532.615 67.301 Q 532.346 67.463 532.046 67.594 Q 531.745 67.725 531.368 67.805 Q 530.991 67.886 530.49 67.886 Q 529.189 67.886 528.488 67.178 Q 527.787 66.469 527.787 65.122 Q 527.787 64.221 528.145 63.582 Q 528.504 62.943 529.131 62.608 Q 529.759 62.273 530.567 62.273 Q 531.021 62.273 531.287 62.346 Q 531.553 62.419 531.703 62.496 Q 531.853 62.573 531.953 62.573 Q 532.038 62.573 532.096 62.5 Q 532.153 62.427 532.253 62.288 L 532.531 62.288 L 532.531 64.206 L 532.207 64.206 Q 532.061 63.389 531.649 63.035 Q 531.237 62.681 530.544 62.681 Q 529.959 62.681 529.558 62.97 Q 529.158 63.259 528.958 63.778 Q 528.758 64.298 528.758 65.006 Q 528.758 66.215 529.25 66.843 Q 529.743 67.47 530.621 67.47 Q 530.998 67.47 531.276 67.355 Q 531.553 67.239 531.784 67.047 L 531.784 66.323 Q 531.784 66.038 531.738 65.892 Q 531.691 65.746 531.541 65.692 Q 531.391 65.638 531.083 65.638 L 531.083 65.33 Z " fill="black" /><path d="M 537.12 64.914 L 537.12 64.914 L 537.12 64.96 Q 537.482 65.014 537.813 65.172 Q 538.144 65.33 538.36 65.615 Q 538.575 65.9 538.575 66.339 Q 538.575 67.047 538.036 67.42 Q 537.497 67.794 536.589 67.794 L 533.932 67.794 L 533.932 67.501 Q 534.279 67.501 534.444 67.443 Q 534.61 67.386 534.66 67.209 Q 534.71 67.032 534.71 66.685 L 534.71 63.436 Q 534.71 63.097 534.656 62.935 Q 534.602 62.773 534.436 62.723 Q 534.271 62.673 533.932 62.673 L 533.932 62.381 L 536.173 62.381 Q 537.297 62.381 537.794 62.731 Q 538.29 63.081 538.29 63.721 Q 538.29 64.244 537.967 64.51 Q 537.643 64.775 537.12 64.914 Z M 535.518 65.199 L 535.518 65.199 L 535.518 67.432 Q 535.68 67.44 535.838 67.44 Q 535.996 67.44 536.15 67.44 Q 536.396 67.44 536.658 67.413 Q 536.92 67.386 537.143 67.282 Q 537.366 67.178 537.501 66.955 Q 537.636 66.731 537.636 66.346 Q 537.636 65.9 537.424 65.653 Q 537.212 65.407 536.87 65.303 Q 536.527 65.199 536.134 65.199 Z M 535.518 64.799 L 535.518 64.799 L 536.134 64.799 Q 536.858 64.799 537.139 64.544 Q 537.42 64.29 537.42 63.774 Q 537.42 63.243 537.085 62.997 Q 536.75 62.75 536.019 62.75 Q 535.895 62.75 535.772 62.754 Q 535.649 62.758 535.518 62.766 Z " fill="black" /></g></g></g><circle cx="0" cy="-108" r="2.7" style="stroke:black;fill:white;stroke-width:2.0;stroke-dasharray:-;" /><g><g><g><path d="M -8.72 -104.26 L -8.72 -104.26 Q -9.699 -104.26 -10.452 -104.706 Q -11.206 -105.151 -11.629 -105.987 Q -12.053 -106.823 -12.053 -107.978 Q -12.053 -109.166 -11.613 -110.007 Q -11.173 -110.849 -10.419 -111.294 Q -9.666 -111.74 -8.709 -111.74 Q -7.895 -111.74 -7.383 -111.465 Q -6.872 -111.19 -6.542 -110.849 L -7.059 -110.244 Q -7.334 -110.53 -7.708 -110.728 Q -8.082 -110.926 -8.665 -110.926 Q -9.765 -110.926 -10.425 -110.145 Q -11.085 -109.364 -11.085 -107.989 Q -11.085 -106.669 -10.452 -105.877 Q -9.82 -105.085 -8.665 -105.085 Q -7.763 -105.085 -7.312 -105.503 L -7.312 -107.362 L -8.863 -107.362 L -8.863 -108.143 L -6.454 -108.143 L -6.454 -105.096 Q -6.806 -104.733 -7.389 -104.496 Q -7.972 -104.26 -8.72 -104.26 Z " fill="black" /></g></g></g><circle cx="108" cy="-108" r="2.7" style="stroke:black;fill:black;stroke-width:2.0;stroke-dasharray:-;" /><circle cx="180" cy="90" r="2.7" style="stroke:black;fill:white;stroke-width:2.0;stroke-dasharray:-;" /><g><g><g><path d="M 169.113 93.614 L 169.113 93.614 L 169.113 86.386 L 171.302 86.386 Q 172.061 86.386 172.633 86.562 Q 173.205 86.739 173.524 87.124 Q 173.843 87.508 173.843 88.124 Q 173.843 88.697 173.563 89.131 Q 173.282 89.566 172.765 89.731 L 172.765 89.775 Q 173.425 89.895 173.849 90.325 Q 174.272 90.754 174.272 91.523 Q 174.272 92.216 173.915 92.678 Q 173.557 93.141 172.93 93.377 Q 172.303 93.614 171.478 93.614 Z M 170.059 92.865 L 170.059 92.865 L 171.335 92.865 Q 172.281 92.865 172.815 92.53 Q 173.348 92.195 173.348 91.49 Q 173.348 90.809 172.837 90.495 Q 172.325 90.181 171.335 90.181 L 170.059 90.181 Z M 170.059 89.466 L 170.059 89.466 L 171.148 89.466 Q 172.105 89.466 172.512 89.142 Q 172.919 88.817 172.919 88.267 Q 172.919 87.651 172.474 87.393 Q 172.028 87.135 171.192 87.135 L 170.059 87.135 Z " fill="black" /></g></g></g><circle cx="252" cy="-108" r="2.7" style="stroke:black;fill:black;stroke-width:2.0;stroke-dasharray:-;" /><circle cx="252" cy="-0" r="2.7" style="stroke:black;fill:black;stroke-width:2.0;stroke-dasharray:-;" /><circle cx="334.8" cy="-108" r="2.7" style="stroke:black;fill:black;stroke-width:2.0;stroke-dasharray:-;" /><circle cx="334.8" cy="-0" r="2.7" style="stroke:black;fill:black;stroke-width:2.0;stroke-dasharray:-;" /><circle cx="406.8" cy="-108" r="2.7" style="stroke:black;fill:black;stroke-width:2.0;stroke-dasharray:-;" /><circle cx="216" cy="-0" r="2.7" style="stroke:black;fill:black;stroke-width:2.0;stroke-dasharray:-;" /><circle cx="216" cy="90" r="2.7" style="stroke:black;fill:black;stroke-width:2.0;stroke-dasharray:-;" /><circle cx="478.8" cy="-108" r="2.7" style="stroke:black;fill:black;stroke-width:2.0;stroke-dasharray:-;" /><circle cx="478.8" cy="90" r="2.7" style="stroke:black;fill:black;stroke-width:2.0;stroke-dasharray:-;" /><circle cx="496.8" cy="-108" r="2.7" style="stroke:black;fill:white;stroke-width:2.0;stroke-dasharray:-;" /><g><g><g><path d="M 504.112 -104.386 L 504.112 -104.386 L 504.112 -111.614 L 505.96 -111.614 Q 507.665 -111.614 508.556 -110.684 Q 509.447 -109.754 509.447 -108.028 Q 509.447 -106.3 508.562 -105.343 Q 507.676 -104.386 506.004 -104.386 Z M 505.058 -105.156 L 505.058 -105.156 L 505.894 -105.156 Q 507.192 -105.156 507.836 -105.91 Q 508.479 -106.663 508.479 -108.028 Q 508.479 -109.391 507.836 -110.117 Q 507.192 -110.843 505.894 -110.843 L 505.058 -110.843 Z " fill="black" /></g></g></g><circle cx="252" cy="36" r="2.7" style="stroke:black;fill:white;stroke-width:2.0;stroke-dasharray:-;" /><g><g><g><path d="M 261.369 39.74 L 261.369 39.74 Q 260.577 39.74 259.923 39.448 Q 259.268 39.157 258.784 38.673 L 259.345 38.024 Q 259.741 38.431 260.274 38.673 Q 260.808 38.915 261.413 38.915 Q 262.117 38.915 262.519 38.596 Q 262.92 38.277 262.92 37.738 Q 262.92 37.386 262.761 37.166 Q 262.601 36.946 262.321 36.792 Q 262.04 36.638 261.688 36.495 L 260.632 36.044 Q 260.313 35.901 259.961 35.675 Q 259.609 35.45 259.373 35.093 Q 259.136 34.735 259.136 34.207 Q 259.136 33.635 259.439 33.195 Q 259.741 32.755 260.264 32.508 Q 260.786 32.26 261.446 32.26 Q 262.117 32.26 262.678 32.508 Q 263.239 32.755 263.635 33.151 L 263.14 33.756 Q 262.788 33.437 262.375 33.255 Q 261.963 33.074 261.468 33.074 Q 260.841 33.074 260.467 33.354 Q 260.093 33.635 260.093 34.119 Q 260.093 34.46 260.274 34.68 Q 260.456 34.9 260.737 35.043 Q 261.017 35.186 261.314 35.307 L 262.359 35.747 Q 262.777 35.923 263.124 36.17 Q 263.47 36.418 263.673 36.781 Q 263.877 37.144 263.877 37.65 Q 263.877 38.244 263.575 38.717 Q 263.272 39.19 262.711 39.465 Q 262.15 39.74 261.369 39.74 Z " fill="black" /></g></g></g></svg>